<?xml version="1.0" encoding="UTF-8"?>
<!DOCTYPE svg
PUBLIC "-//W3C//DTD SVG 1.1//EN"
       "http://www.w3.org/Graphics/SVG/1.1/DTD/svg11.dtd">
<svg viewBox="38 32 831 369" width="793px" height="337px" xmlns="http://www.w3.org/2000/svg" version="1.1">
   <line x1="480" y1="137" x2="490" y2="137" style="stroke:#333;stroke-width:1;"/>
   <line x1="699" y1="197" x2="709" y2="197" style="stroke:#333;stroke-width:1;"/>
   <line x1="490" y1="137" x2="699" y2="197" style="stroke:#333;stroke-width:1;"/>
   <line x1="487.5" y1="137" x2="483.96446609407" y2="140.53553390593" style="stroke:#333;stroke-width:2;"/>
   <line x1="487.5" y1="137" x2="483.96446609407" y2="133.46446609407" style="stroke:#333;stroke-width:2;"/>
   <line x1="704" y1="197" x2="700.46446609407" y2="200.53553390593" style="stroke:#333;stroke-width:2;"/>
   <line x1="704" y1="197" x2="700.46446609407" y2="193.46446609407" style="stroke:#333;stroke-width:2;"/>
   <line x1="165" y1="224" x2="175" y2="224" style="stroke:#bbb;stroke-width:1;"/>
   <line x1="374" y1="77" x2="384" y2="77" style="stroke:#bbb;stroke-width:1;"/>
   <line x1="175" y1="224" x2="374" y2="77" style="stroke:#bbb;stroke-width:1;"/>
   <line x1="172.5" y1="224" x2="168.96446609407" y2="227.53553390593" style="stroke:#bbb;stroke-width:2;"/>
   <line x1="172.5" y1="224" x2="168.96446609407" y2="220.46446609407" style="stroke:#bbb;stroke-width:2;"/>
   <line x1="379" y1="77" x2="375.46446609407" y2="80.535533905933" style="stroke:#bbb;stroke-width:2;"/>
   <line x1="379" y1="77" x2="375.46446609407" y2="73.464466094067" style="stroke:#bbb;stroke-width:2;"/>
   <rect width="96" height="20" x="384" y="47" style="fill:#007;stroke:black;"/>
   <text width="96" height="20" x="389" y="61" style="fill:#fff;" font-family="Arial" font-size="16px"> articles</text>
   <rect width="96" height="20" x="384" y="67" style="fill:#aea;stroke:black;"/>
   <text width="96" height="20" x="389" y="81" style="fill:black;" font-family="Arial" font-size="16px">id</text>
   <rect width="96" height="20" x="384" y="87" style="fill:none;stroke:black;"/>
   <text width="96" height="20" x="389" y="101" style="fill:black;" font-family="Arial" font-size="16px">titre</text>
   <rect width="96" height="20" x="384" y="107" style="fill:none;stroke:black;"/>
   <text width="96" height="20" x="389" y="121" style="fill:black;" font-family="Arial" font-size="16px">sous_titre</text>
   <rect width="96" height="20" x="384" y="127" style="fill:none;stroke:black;"/>
   <text width="96" height="20" x="389" y="141" style="fill:black;" font-family="Arial" font-size="16px">utilisateur_id</text>
   <rect width="96" height="20" x="384" y="147" style="fill:none;stroke:black;"/>
   <text width="96" height="20" x="389" y="161" style="fill:black;" font-family="Arial" font-size="16px">date</text>
   <rect width="96" height="20" x="384" y="167" style="fill:none;stroke:black;"/>
   <text width="96" height="20" x="389" y="181" style="fill:black;" font-family="Arial" font-size="16px">texte</text>
   <rect width="96" height="20" x="384" y="187" style="fill:none;stroke:black;"/>
   <text width="96" height="20" x="389" y="201" style="fill:black;" font-family="Arial" font-size="16px">type</text>
   <rect width="112" height="20" x="53" y="174" style="fill:#007;stroke:black;"/>
   <text width="112" height="20" x="58" y="188" style="fill:#fff;" font-family="Arial" font-size="16px"> commentaires</text>
   <rect width="112" height="20" x="53" y="194" style="fill:#aea;stroke:black;"/>
   <text width="112" height="20" x="58" y="208" style="fill:black;" font-family="Arial" font-size="16px">id</text>
   <rect width="112" height="20" x="53" y="214" style="fill:none;stroke:black;"/>
   <text width="112" height="20" x="58" y="228" style="fill:black;" font-family="Arial" font-size="16px">article_id</text>
   <rect width="112" height="20" x="53" y="234" style="fill:none;stroke:black;"/>
   <text width="112" height="20" x="58" y="248" style="fill:black;" font-family="Arial" font-size="16px">date</text>
   <rect width="112" height="20" x="53" y="254" style="fill:none;stroke:black;"/>
   <text width="112" height="20" x="58" y="268" style="fill:black;" font-family="Arial" font-size="16px">auteur</text>
   <rect width="112" height="20" x="53" y="274" style="fill:none;stroke:black;"/>
   <text width="112" height="20" x="58" y="288" style="fill:black;" font-family="Arial" font-size="16px">titre</text>
   <rect width="112" height="20" x="53" y="294" style="fill:none;stroke:black;"/>
   <text width="112" height="20" x="58" y="308" style="fill:black;" font-family="Arial" font-size="16px">texte</text>
   <rect width="112" height="20" x="53" y="314" style="fill:none;stroke:black;"/>
   <text width="112" height="20" x="58" y="328" style="fill:black;" font-family="Arial" font-size="16px">prive</text>
   <rect width="112" height="20" x="53" y="334" style="fill:none;stroke:black;"/>
   <text width="112" height="20" x="58" y="348" style="fill:black;" font-family="Arial" font-size="16px">efface</text>
   <rect width="47" height="20" x="395" y="235" style="fill:#007;stroke:black;"/>
   <text width="47" height="20" x="400" y="249" style="fill:#fff;" font-family="Arial" font-size="16px"> types</text>
   <rect width="47" height="20" x="395" y="255" style="fill:#aea;stroke:black;"/>
   <text width="47" height="20" x="400" y="269" style="fill:black;" font-family="Arial" font-size="16px">id</text>
   <rect width="47" height="20" x="395" y="275" style="fill:none;stroke:black;"/>
   <text width="47" height="20" x="400" y="289" style="fill:black;" font-family="Arial" font-size="16px">type</text>
   <rect width="107" height="20" x="709" y="167" style="fill:#007;stroke:black;"/>
   <text width="107" height="20" x="714" y="181" style="fill:#fff;" font-family="Arial" font-size="16px"> utilisateurs</text>
   <rect width="107" height="20" x="709" y="187" style="fill:#aea;stroke:black;"/>
   <text width="107" height="20" x="714" y="201" style="fill:black;" font-family="Arial" font-size="16px">id</text>
   <rect width="107" height="20" x="709" y="207" style="fill:none;stroke:black;"/>
   <text width="107" height="20" x="714" y="221" style="fill:black;" font-family="Arial" font-size="16px">nom</text>
   <rect width="107" height="20" x="709" y="227" style="fill:none;stroke:black;"/>
   <text width="107" height="20" x="714" y="241" style="fill:black;" font-family="Arial" font-size="16px">identifiant</text>
   <rect width="107" height="20" x="709" y="247" style="fill:none;stroke:black;"/>
   <text width="107" height="20" x="714" y="261" style="fill:black;" font-family="Arial" font-size="16px">mot_de_passe</text>
</svg>
